<svg xmlns="http://www.w3.org/2000/svg" width="251.11361694335938" height="255.5903778076172" viewBox="-28.68679428100586 -20.716320037841797 251.11361694335938 255.5903778076172"><title>Neo4j Graph Visualization</title><desc>Created using Neo4j (http://www.neo4j.com/)</desc><g class="layer relationships"><g class="relationship" transform="translate(148.5694384898941 205.87403860436086) rotate(234.81583721256118)"><path class="outline" fill="#A5ABB6" stroke="none" d="M 25 0.5 L 29.664199010212876 0.5 L 29.664199010212876 -0.5 L 25 -0.5 Z M 75.22669901021288 0.5 L 79.89089802042575 0.5 L 79.89089802042575 3.5 L 86.89089802042575 0 L 79.89089802042575 -3.5 L 79.89089802042575 -0.5 L 75.22669901021288 -0.5 Z"/><text text-anchor="middle" pointer-events="none" font-size="8px" fill="#000000" x="52.445449010212876" y="3" transform="rotate(180 52.445449010212876 0)" font-family="sans-serif">ACTED_IN</text></g><g class="relationship" transform="translate(193.42681863457605 91.1670543328993) rotate(527.9902969498442)"><path class="outline" fill="#A5ABB6" stroke="none" d="M 25 0.5 L 34.50135565443863 0.5 L 34.50135565443863 -0.5 L 25 -0.5 Z M 70.27479315443864 0.5 L 79.77614880887727 0.5 L 79.77614880887727 3.5 L 86.77614880887727 0 L 79.77614880887727 -3.5 L 79.77614880887727 -0.5 L 70.27479315443864 -0.5 Z"/><text text-anchor="middle" pointer-events="none" font-size="8px" fill="#000000" x="52.38807440443863" y="3" transform="rotate(180 52.38807440443863 0)" font-family="sans-serif">WROTE</text></g><g class="relationship" transform="translate(119.16509535881609 8.283678914494267) rotate(468.2829580847917)"><path class="outline" fill="#A5ABB6" stroke="none" d="M 25 0.5 L 34.50551614765079 0.5 L 34.50551614765079 -0.5 L 25 -0.5 Z M 70.27895364765078 0.5 L 79.78446979530158 0.5 L 79.78446979530158 3.5 L 86.78446979530158 0 L 79.78446979530158 -3.5 L 79.78446979530158 -0.5 L 70.27895364765078 -0.5 Z"/><text text-anchor="middle" pointer-events="none" font-size="8px" fill="#000000" x="52.39223489765079" y="3" transform="rotate(180 52.39223489765079 0)" font-family="sans-serif">WROTE</text></g><g class="relationship" transform="translate(0.3132061705016357 40.24477402258973) rotate(401.5209228933768)"><path class="outline" fill="#A5ABB6" stroke="none" d="M 25 0.5 L 34.56522784762608 0.5 L 34.56522784762608 -0.5 L 25 -0.5 Z M 70.33866534762609 0.5 L 79.90389319525217 0.5 L 79.90389319525217 3.5 L 86.90389319525217 0 L 79.90389319525217 -3.5 L 79.90389319525217 -0.5 L 70.33866534762609 -0.5 Z"/><text text-anchor="middle" pointer-events="none" font-size="8px" fill="#000000" x="52.45194659762608" y="3" font-family="sans-serif">WROTE</text></g><g class="relationship" transform="translate(2.443028020513921 187.41527554704015) rotate(318.2066703170454)"><path class="outline" fill="#A5ABB6" stroke="none" d="M 25 0.5 L 28.479505593077626 0.5 L 28.479505593077626 -0.5 L 25 -0.5 Z M 74.04200559307762 0.5 L 77.52151118615525 0.5 L 77.52151118615525 3.5 L 84.52151118615525 0 L 77.52151118615525 -3.5 L 77.52151118615525 -0.5 L 74.04200559307762 -0.5 Z"/><text text-anchor="middle" pointer-events="none" font-size="8px" fill="#000000" x="51.260755593077626" y="3" font-family="sans-serif">ACTED_IN</text></g></g><g class="layer nodes"><g class="node" transform="translate(148.5694384898941,205.87403860436086)"><circle class="outline" cx="0" cy="0" r="25" fill="#57C7E3" stroke="#23b3d7" stroke-width="2px"/><text text-anchor="middle" pointer-events="none" font-family="sans-serif" dy="1.5625" font-size="25" fill="#2A2C34"/><text text-anchor="middle" pointer-events="none" font-family="sans-serif" dy="1.5625" font-size="25" fill="#2A2C34"/><text text-anchor="middle" pointer-events="none" font-family="sans-serif" dy="1.5625" font-size="25" fill="#2A2C34"/><text text-anchor="middle" pointer-events="none" x="0" y="-5" font-size="10px" fill="#2A2C34" font-family="sans-serif"> Samuel</text><text text-anchor="middle" pointer-events="none" x="0" y="5" font-size="10px" fill="#2A2C34" font-family="sans-serif"> L.</text><text text-anchor="middle" pointer-events="none" x="0" y="15" font-size="10px" fill="#2A2C34" font-family="sans-serif"> Jackson</text></g><g class="node" transform="translate(84.09718405057413,114.42513775077542)"><circle class="outline" cx="0" cy="0" r="25" fill="#F79767" stroke="#f36924" stroke-width="2px"/><text text-anchor="middle" pointer-events="none" font-family="sans-serif" dy="1.5625" font-size="25" fill="#FFFFFF"/><text text-anchor="middle" pointer-events="none" font-family="sans-serif" dy="1.5625" font-size="25" fill="#FFFFFF"/><text text-anchor="middle" pointer-events="none" font-family="sans-serif" dy="1.5625" font-size="25" fill="#FFFFFF"/><text text-anchor="middle" pointer-events="none" x="0" y="-5" font-size="10px" fill="#FFFFFF" font-family="sans-serif"> Captain</text><text text-anchor="middle" pointer-events="none" x="0" y="5" font-size="10px" fill="#FFFFFF" font-family="sans-serif"> America:</text><text text-anchor="middle" pointer-events="none" x="0" y="15" font-size="10px" fill="#FFFFFF" font-family="sans-serif"> The Fi…</text></g><g class="node" transform="translate(193.42681863457605,91.1670543328993)"><circle class="outline" cx="0" cy="0" r="25" fill="#57C7E3" stroke="#23b3d7" stroke-width="2px"/><text text-anchor="middle" pointer-events="none" font-family="sans-serif" dy="1.5625" font-size="25" fill="#2A2C34"/><text text-anchor="middle" pointer-events="none" font-family="sans-serif" dy="1.5625" font-size="25" fill="#2A2C34"/><text text-anchor="middle" pointer-events="none" x="0" y="0" font-size="10px" fill="#2A2C34" font-family="sans-serif"> Stephen</text><text text-anchor="middle" pointer-events="none" x="0" y="10" font-size="10px" fill="#2A2C34" font-family="sans-serif"> McFeely</text></g><g class="node" transform="translate(119.16509535881609,8.283678914494267)"><circle class="outline" cx="0" cy="0" r="25" fill="#57C7E3" stroke="#23b3d7" stroke-width="2px"/><text text-anchor="middle" pointer-events="none" font-family="sans-serif" dy="1.5625" font-size="25" fill="#2A2C34"/><text text-anchor="middle" pointer-events="none" font-family="sans-serif" dy="1.5625" font-size="25" fill="#2A2C34"/><text text-anchor="middle" pointer-events="none" x="0" y="0" font-size="10px" fill="#2A2C34" font-family="sans-serif"> Joe</text><text text-anchor="middle" pointer-events="none" x="0" y="10" font-size="10px" fill="#2A2C34" font-family="sans-serif"> Saimon</text></g><g class="node" transform="translate(0.3132061705016357,40.24477402258973)"><circle class="outline" cx="0" cy="0" r="25" fill="#57C7E3" stroke="#23b3d7" stroke-width="2px"/><text text-anchor="middle" pointer-events="none" font-family="sans-serif" dy="1.5625" font-size="25" fill="#2A2C34"/><text text-anchor="middle" pointer-events="none" x="0" y="5" font-size="10px" fill="#2A2C34" font-family="sans-serif"> Christop…</text></g><g class="node" transform="translate(2.443028020513921,187.41527554704015)"><circle class="outline" cx="0" cy="0" r="25" fill="#57C7E3" stroke="#23b3d7" stroke-width="2px"/><text text-anchor="middle" pointer-events="none" font-family="sans-serif" dy="1.5625" font-size="25" fill="#2A2C34"/><text text-anchor="middle" pointer-events="none" font-family="sans-serif" dy="1.5625" font-size="25" fill="#2A2C34"/><text text-anchor="middle" pointer-events="none" x="0" y="0" font-size="10px" fill="#2A2C34" font-family="sans-serif"> Chris</text><text text-anchor="middle" pointer-events="none" x="0" y="10" font-size="10px" fill="#2A2C34" font-family="sans-serif"> Evans</text></g></g></svg>